<svg width="122" height="83" viewBox="0 0 122 83" version="1.1" xmlns="http://www.w3.org/2000/svg" xmlns:xlink="http://www.w3.org/1999/xlink">
<title>Group</title>
<desc>Created using Figma</desc>
<g id="Canvas" transform="translate(61 400)">
<g id="Group">
<g id="cloud black">
<use xlink:href="#path0_fill" transform="translate(-61 -407)"/>
</g>
<g id="cloud grey">
<use xlink:href="#path1_fill" transform="translate(-42 -406)" fill="#BDBDBD"/>
</g>
</g>
</g>
<defs>
<path id="path0_fill" d="M 112.5 67.5C 112.5 73.7109 110.293 79.0234 105.879 83.4375C 101.504 87.8125 96.2109 90 90 90L 26.25 90C 19.0234 90 12.832 87.4414 7.67578 82.3242C 2.55859 77.168 0 70.9766 0 63.75C 0 58.5938 1.38672 53.8867 4.16016 49.6289C 6.93359 45.332 10.5859 42.1289 15.1172 40.0195C 15.0391 38.9258 15 38.0859 15 37.5C 15 29.2188 17.9297 22.1484 23.7891 16.2891C 29.6484 10.4297 36.7188 7.5 45 7.5C 51.1719 7.5 56.7578 9.21875 61.7578 12.6563C 66.7969 16.0938 70.4688 20.5859 72.7734 26.1328C 75.5078 23.7109 78.75 22.5 82.5 22.5C 86.6406 22.5 90.1758 23.9648 93.1055 26.8945C 96.0352 29.8242 97.5 33.3594 97.5 37.5C 97.5 40.4297 96.6992 43.125 95.0977 45.5859C 100.137 46.7578 104.297 49.3945 107.578 53.4961C 110.859 57.5586 112.5 62.2266 112.5 67.5Z"/>
<path id="path1_fill" d="M 102.857 61.4286C 102.857 67.1071 100.839 71.9643 96.8036 76C 92.8036 80 87.9643 82 82.2857 82L 24 82C 17.3929 82 11.7321 79.6607 7.01786 74.9821C 2.33929 70.2679 0 64.6071 0 58C 0 53.2857 1.26786 48.9821 3.80357 45.0893C 6.33929 41.1607 9.67857 38.2321 13.8214 36.3036C 13.75 35.3036 13.7143 34.5357 13.7143 34C 13.7143 26.4286 16.3929 19.9643 21.75 14.6071C 27.1071 9.25 33.5714 6.57143 41.1429 6.57143C 46.7857 6.57143 51.8929 8.14286 56.4643 11.2857C 61.0714 14.4286 64.4286 18.5357 66.5357 23.6071C 69.0357 21.3929 72 20.2857 75.4286 20.2857C 79.2143 20.2857 82.4464 21.625 85.125 24.3036C 87.8036 26.9821 89.1429 30.2143 89.1429 34C 89.1429 36.6786 88.4107 39.1429 86.9464 41.3929C 91.5536 42.4643 95.3571 44.875 98.3571 48.625C 101.357 52.3393 102.857 56.6071 102.857 61.4286Z"/>
</defs>
</svg>
